<?xml version="1.0" standalone="no"?>
<!DOCTYPE svg PUBLIC "-//W3C//DTD SVG 20010904//EN"
 "http://www.w3.org/TR/2001/REC-SVG-20010904/DTD/svg10.dtd">
<svg version="1.0" xmlns="http://www.w3.org/2000/svg"
 width="700.000000pt" height="700.000000pt" viewBox="0 0 700.000000 700.000000"
 preserveAspectRatio="xMidYMid meet">
<metadata>
Created by potrace 1.11, written by Peter Selinger 2001-2013
</metadata>
<g transform="translate(0.000000,700.000000) scale(0.100000,-0.100000)"
fill="#000000" stroke="none">
<path d="M1313 6349 c-80 -10 -218 -58 -291 -100 -80 -47 -220 -189 -270 -274
-53 -89 -89 -194 -102 -299 -7 -56 -10 -754 -8 -2231 l3 -2150 28 -90 c41
-132 98 -225 197 -326 130 -132 277 -206 453 -229 97 -13 4257 -13 4354 0 172
22 322 97 449 224 127 127 202 277 224 449 13 97 13 4257 0 4354 -13 97 -52
213 -102 298 -50 85 -190 226 -270 274 -77 44 -209 89 -300 101 -90 12 -4275
11 -4365 -1z m4351 -169 c236 -35 429 -205 503 -445 17 -57 18 -152 18 -2235
0 -2083 -1 -2178 -18 -2235 -65 -211 -221 -367 -432 -432 -57 -17 -152 -18
-2235 -18 -2083 0 -2178 1 -2235 18 -240 74 -410 267 -445 503 -13 94 -13
4234 0 4328 38 260 252 478 508 515 83 12 4251 13 4336 1z"/>
<path d="M1226 5338 c-23 -32 -23 -220 0 -242 13 -13 44 -16 179 -16 l164 0 3
-500 c2 -393 6 -502 16 -512 18 -18 266 -18 284 0 10 10 14 119 16 512 l3 500
164 0 c201 0 195 -5 195 142 0 152 53 138 -524 138 l-485 0 -15 -22z"/>
<path d="M2464 5346 c-18 -14 -19 -32 -19 -640 0 -499 3 -628 13 -638 10 -10
112 -13 488 -13 459 0 476 1 490 19 21 29 20 219 -2 240 -13 14 -59 16 -345
16 l-329 0 0 130 0 130 275 0 c334 0 315 -8 315 129 0 49 -4 101 -10 115 l-10
26 -285 0 -285 0 0 110 0 110 313 0 c230 0 316 3 325 12 8 8 12 51 12 130 0
106 -2 118 -19 128 -13 6 -177 10 -463 10 -368 0 -448 -2 -464 -14z"/>
<path d="M3593 5353 c-27 -10 -9 -53 99 -227 61 -100 142 -231 180 -292 l69
-112 -181 -310 c-99 -170 -180 -317 -180 -325 0 -31 38 -39 170 -35 87 2 132
7 143 16 9 8 64 99 123 204 102 181 108 189 120 167 148 -272 211 -374 234
-380 14 -4 79 -7 146 -8 124 -1 144 5 144 41 0 10 -74 146 -165 302 -91 157
-170 296 -176 309 -10 22 6 51 165 310 97 157 179 293 182 302 4 8 1 22 -6 30
-10 12 -40 15 -147 15 l-135 0 -32 -32 c-18 -18 -74 -102 -125 -185 -51 -84
-96 -153 -99 -153 -4 1 -54 78 -111 171 -58 94 -114 177 -125 185 -15 10 -53
14 -151 13 -71 0 -136 -3 -142 -6z"/>
<path d="M4769 5339 c-19 -19 -20 -30 -17 -130 2 -84 7 -112 18 -119 8 -5 90
-10 183 -10 l167 0 0 -505 0 -505 28 -11 c15 -6 77 -9 140 -7 99 3 116 6 128
22 12 17 14 103 14 513 l0 493 164 0 c136 0 167 3 180 16 13 12 16 38 16 120
0 159 54 144 -520 144 -473 0 -480 0 -501 -21z"/>
<path d="M1421 3714 c-21 -27 -21 -30 -21 -1081 l0 -1054 25 -24 c24 -25 24
-25 234 -25 207 0 210 0 238 24 l28 24 5 588 5 588 170 -295 c93 -162 181
-306 196 -321 27 -27 30 -28 143 -28 112 0 117 1 145 28 16 15 106 162 200
327 l171 300 0 -582 c0 -405 3 -589 11 -606 6 -14 22 -30 36 -36 25 -12 380
-16 421 -5 54 15 52 -22 52 1107 0 1041 0 1044 -21 1071 l-20 26 -215 0 c-169
0 -221 -3 -243 -15 -22 -11 -83 -112 -282 -466 -200 -358 -255 -448 -263 -436
-6 8 -119 209 -251 447 -184 331 -247 437 -270 451 -27 17 -52 19 -252 19
l-222 0 -20 -26z"/>
<path d="M4006 3719 l-26 -20 0 -1064 0 -1064 26 -20 c27 -21 33 -21 820 -21
l793 0 28 24 28 24 3 164 c4 183 -4 228 -43 246 -19 9 -179 12 -575 12 l-550
0 0 220 0 220 448 0 c278 0 461 4 484 10 58 17 63 33 63 228 l0 174 -28 24
-28 24 -470 0 -469 0 0 185 0 185 529 0 c506 0 530 1 552 19 24 19 24 21 24
216 0 195 0 197 -24 216 -22 18 -50 19 -791 19 -761 0 -768 0 -794 -21z"/>
</g>
</svg>
